<mxfile host="Electron" modified="2024-03-12T19:58:46.530Z" agent="Mozilla/5.0 (Windows NT 10.0; Win64; x64) AppleWebKit/537.36 (KHTML, like Gecko) draw.io/21.6.5 Chrome/114.0.5735.243 Electron/25.3.1 Safari/537.36" etag="g3fwv5AtcDnPvrqzQAFs" version="21.6.5" type="device">
  <diagram name="Página-1" id="g2Np5_hUV5JFOw5ff4q-">
    <mxGraphModel dx="942" dy="1903" grid="1" gridSize="10" guides="1" tooltips="1" connect="1" arrows="1" fold="1" page="1" pageScale="1" pageWidth="827" pageHeight="1169" math="0" shadow="0">
      <root>
        <mxCell id="0" />
        <mxCell id="1" parent="0" />
        <mxCell id="d3SKRms_41stb-vJ69zK-1" value="reserva" style="swimlane;childLayout=stackLayout;horizontal=1;startSize=50;horizontalStack=0;rounded=1;fontSize=14;fontStyle=0;strokeWidth=2;resizeParent=0;resizeLast=1;shadow=0;dashed=0;align=center;arcSize=4;whiteSpace=wrap;html=1;fontFamily=Ubuntu Mono;fontSource=https%3A%2F%2Ffonts.googleapis.com%2Fcss%3Ffamily%3DUbuntu%2BMono;" vertex="1" parent="1">
          <mxGeometry x="940" y="-160" width="190" height="220" as="geometry" />
        </mxCell>
        <mxCell id="d3SKRms_41stb-vJ69zK-2" value="PK codReserva&lt;div&gt;FK codReshab&lt;/div&gt;&lt;div&gt;FK codCliente&lt;/div&gt;&lt;div&gt;FK codEmpleado&lt;/div&gt;&lt;div&gt;Fk codRescochera&lt;/div&gt;&lt;div&gt;* cantidad&lt;/div&gt;&lt;div&gt;* fechaIngreso&lt;/div&gt;&lt;div&gt;* fechaEgreso&lt;/div&gt;&lt;div&gt;* fechaReserva&lt;/div&gt;&lt;div&gt;° descr&lt;/div&gt;&lt;div&gt;&lt;br&gt;&lt;/div&gt;" style="align=left;strokeColor=none;fillColor=none;spacingLeft=4;fontSize=12;verticalAlign=top;resizable=0;rotatable=0;part=1;html=1;fontFamily=Ubuntu Mono;fontSource=https%3A%2F%2Ffonts.googleapis.com%2Fcss%3Ffamily%3DUbuntu%2BMono;" vertex="1" parent="d3SKRms_41stb-vJ69zK-1">
          <mxGeometry y="50" width="190" height="170" as="geometry" />
        </mxCell>
        <mxCell id="d3SKRms_41stb-vJ69zK-3" value="historial" style="swimlane;childLayout=stackLayout;horizontal=1;startSize=50;horizontalStack=0;rounded=1;fontSize=14;fontStyle=0;strokeWidth=2;resizeParent=0;resizeLast=1;shadow=0;dashed=0;align=center;arcSize=4;whiteSpace=wrap;html=1;fontFamily=Ubuntu Mono;fontSource=https%3A%2F%2Ffonts.googleapis.com%2Fcss%3Ffamily%3DUbuntu%2BMono;" vertex="1" parent="1">
          <mxGeometry x="940" y="99" width="190" height="130" as="geometry" />
        </mxCell>
        <mxCell id="d3SKRms_41stb-vJ69zK-4" value="PK codHistorial&lt;div&gt;Fk codReserva&lt;/div&gt;&lt;div&gt;Fk codEmpleado&lt;/div&gt;&lt;div&gt;° descr&lt;/div&gt;" style="align=left;strokeColor=none;fillColor=none;spacingLeft=4;fontSize=12;verticalAlign=top;resizable=0;rotatable=0;part=1;html=1;fontFamily=Ubuntu Mono;fontSource=https%3A%2F%2Ffonts.googleapis.com%2Fcss%3Ffamily%3DUbuntu%2BMono;" vertex="1" parent="d3SKRms_41stb-vJ69zK-3">
          <mxGeometry y="50" width="190" height="80" as="geometry" />
        </mxCell>
        <mxCell id="d3SKRms_41stb-vJ69zK-5" value="habitacion" style="swimlane;childLayout=stackLayout;horizontal=1;startSize=50;horizontalStack=0;rounded=1;fontSize=14;fontStyle=0;strokeWidth=2;resizeParent=0;resizeLast=1;shadow=0;dashed=0;align=center;arcSize=4;whiteSpace=wrap;html=1;fontFamily=Ubuntu Mono;fontSource=https%3A%2F%2Ffonts.googleapis.com%2Fcss%3Ffamily%3DUbuntu%2BMono;" vertex="1" parent="1">
          <mxGeometry x="420" y="-160" width="190" height="150" as="geometry" />
        </mxCell>
        <mxCell id="d3SKRms_41stb-vJ69zK-6" value="PK codHab&lt;div&gt;* piso&lt;/div&gt;&lt;div&gt;* camaMatr&lt;/div&gt;&lt;div&gt;* camaInd&lt;/div&gt;&lt;div&gt;&lt;br&gt;&lt;/div&gt;&lt;div&gt;&lt;br&gt;&lt;/div&gt;" style="align=left;strokeColor=none;fillColor=none;spacingLeft=4;fontSize=12;verticalAlign=top;resizable=0;rotatable=0;part=1;html=1;fontFamily=Ubuntu Mono;fontSource=https%3A%2F%2Ffonts.googleapis.com%2Fcss%3Ffamily%3DUbuntu%2BMono;" vertex="1" parent="d3SKRms_41stb-vJ69zK-5">
          <mxGeometry y="50" width="190" height="100" as="geometry" />
        </mxCell>
        <mxCell id="d3SKRms_41stb-vJ69zK-8" value="cochera" style="swimlane;childLayout=stackLayout;horizontal=1;startSize=50;horizontalStack=0;rounded=1;fontSize=14;fontStyle=0;strokeWidth=2;resizeParent=0;resizeLast=1;shadow=0;dashed=0;align=center;arcSize=4;whiteSpace=wrap;html=1;fontFamily=Ubuntu Mono;fontSource=https%3A%2F%2Ffonts.googleapis.com%2Fcss%3Ffamily%3DUbuntu%2BMono;" vertex="1" parent="1">
          <mxGeometry x="940" y="-520" width="190" height="130" as="geometry" />
        </mxCell>
        <mxCell id="d3SKRms_41stb-vJ69zK-9" value="PK codCochera&lt;br&gt;* estado" style="align=left;strokeColor=none;fillColor=none;spacingLeft=4;fontSize=12;verticalAlign=top;resizable=0;rotatable=0;part=1;html=1;fontFamily=Ubuntu Mono;fontSource=https%3A%2F%2Ffonts.googleapis.com%2Fcss%3Ffamily%3DUbuntu%2BMono;" vertex="1" parent="d3SKRms_41stb-vJ69zK-8">
          <mxGeometry y="50" width="190" height="80" as="geometry" />
        </mxCell>
        <mxCell id="d3SKRms_41stb-vJ69zK-10" value="cliente" style="swimlane;childLayout=stackLayout;horizontal=1;startSize=50;horizontalStack=0;rounded=1;fontSize=14;fontStyle=0;strokeWidth=2;resizeParent=0;resizeLast=1;shadow=0;dashed=0;align=center;arcSize=4;whiteSpace=wrap;html=1;fontFamily=Ubuntu Mono;fontSource=https%3A%2F%2Ffonts.googleapis.com%2Fcss%3Ffamily%3DUbuntu%2BMono;" vertex="1" parent="1">
          <mxGeometry x="630" y="40" width="190" height="140" as="geometry" />
        </mxCell>
        <mxCell id="d3SKRms_41stb-vJ69zK-11" value="&lt;div&gt;PK codCliente&lt;/div&gt;&lt;div&gt;* nombre&lt;/div&gt;&lt;div&gt;* dni&lt;/div&gt;&lt;div&gt;° email&lt;/div&gt;&lt;div&gt;° descr&lt;/div&gt;" style="align=left;strokeColor=none;fillColor=none;spacingLeft=4;fontSize=12;verticalAlign=top;resizable=0;rotatable=0;part=1;html=1;fontFamily=Ubuntu Mono;fontSource=https%3A%2F%2Ffonts.googleapis.com%2Fcss%3Ffamily%3DUbuntu%2BMono;" vertex="1" parent="d3SKRms_41stb-vJ69zK-10">
          <mxGeometry y="50" width="190" height="90" as="geometry" />
        </mxCell>
        <mxCell id="d3SKRms_41stb-vJ69zK-12" value="empleado" style="swimlane;childLayout=stackLayout;horizontal=1;startSize=50;horizontalStack=0;rounded=1;fontSize=14;fontStyle=0;strokeWidth=2;resizeParent=0;resizeLast=1;shadow=0;dashed=0;align=center;arcSize=4;whiteSpace=wrap;html=1;fontFamily=Ubuntu Mono;fontSource=https%3A%2F%2Ffonts.googleapis.com%2Fcss%3Ffamily%3DUbuntu%2BMono;" vertex="1" parent="1">
          <mxGeometry x="1220" y="-147.5" width="190" height="195" as="geometry" />
        </mxCell>
        <mxCell id="d3SKRms_41stb-vJ69zK-13" value="&lt;div&gt;PK codEmpl&lt;/div&gt;&lt;div&gt;* nombre&lt;/div&gt;&lt;div&gt;* dni&lt;/div&gt;&lt;div&gt;* email&lt;/div&gt;&lt;div&gt;* telefono&lt;/div&gt;&lt;div&gt;* puesto&lt;/div&gt;&lt;div&gt;FK codLog&lt;/div&gt;" style="align=left;strokeColor=none;fillColor=none;spacingLeft=4;fontSize=12;verticalAlign=top;resizable=0;rotatable=0;part=1;html=1;fontFamily=Ubuntu Mono;fontSource=https%3A%2F%2Ffonts.googleapis.com%2Fcss%3Ffamily%3DUbuntu%2BMono;" vertex="1" parent="d3SKRms_41stb-vJ69zK-12">
          <mxGeometry y="50" width="190" height="145" as="geometry" />
        </mxCell>
        <mxCell id="d3SKRms_41stb-vJ69zK-14" value="hotel" style="swimlane;childLayout=stackLayout;horizontal=1;startSize=50;horizontalStack=0;rounded=1;fontSize=14;fontStyle=0;strokeWidth=2;resizeParent=0;resizeLast=1;shadow=0;dashed=0;align=center;arcSize=4;whiteSpace=wrap;html=1;fontFamily=Ubuntu Mono;fontSource=https%3A%2F%2Ffonts.googleapis.com%2Fcss%3Ffamily%3DUbuntu%2BMono;" vertex="1" parent="1">
          <mxGeometry x="435" y="-348" width="190" height="130" as="geometry" />
        </mxCell>
        <mxCell id="d3SKRms_41stb-vJ69zK-15" value="* nombre&lt;div&gt;* habitaciones&lt;/div&gt;&lt;div&gt;* pisos&lt;/div&gt;&lt;div&gt;* capacidad&lt;/div&gt;" style="align=left;strokeColor=none;fillColor=none;spacingLeft=4;fontSize=12;verticalAlign=top;resizable=0;rotatable=0;part=1;html=1;fontFamily=Ubuntu Mono;fontSource=https%3A%2F%2Ffonts.googleapis.com%2Fcss%3Ffamily%3DUbuntu%2BMono;" vertex="1" parent="d3SKRms_41stb-vJ69zK-14">
          <mxGeometry y="50" width="190" height="80" as="geometry" />
        </mxCell>
        <mxCell id="d3SKRms_41stb-vJ69zK-16" style="edgeStyle=orthogonalEdgeStyle;rounded=0;orthogonalLoop=1;jettySize=auto;html=1;exitX=0;exitY=0.5;exitDx=0;exitDy=0;entryX=1.005;entryY=0.354;entryDx=0;entryDy=0;entryPerimeter=0;endArrow=ERzeroToMany;endFill=0;startArrow=ERmandOne;startFill=0;" edge="1" parent="1" source="d3SKRms_41stb-vJ69zK-12" target="d3SKRms_41stb-vJ69zK-2">
          <mxGeometry relative="1" as="geometry" />
        </mxCell>
        <mxCell id="d3SKRms_41stb-vJ69zK-17" style="edgeStyle=orthogonalEdgeStyle;rounded=0;orthogonalLoop=1;jettySize=auto;html=1;exitX=1;exitY=0.25;exitDx=0;exitDy=0;entryX=-0.003;entryY=0.367;entryDx=0;entryDy=0;entryPerimeter=0;endArrow=ERzeroToMany;endFill=0;startArrow=ERmandOne;startFill=0;" edge="1" parent="1" source="d3SKRms_41stb-vJ69zK-11">
          <mxGeometry relative="1" as="geometry">
            <mxPoint x="939.4299999999998" y="32.39000000000033" as="targetPoint" />
            <Array as="points">
              <mxPoint x="880" y="113" />
              <mxPoint x="880" y="32" />
            </Array>
          </mxGeometry>
        </mxCell>
        <mxCell id="d3SKRms_41stb-vJ69zK-18" style="edgeStyle=orthogonalEdgeStyle;rounded=0;orthogonalLoop=1;jettySize=auto;html=1;exitX=0.5;exitY=1;exitDx=0;exitDy=0;entryX=0.5;entryY=0;entryDx=0;entryDy=0;endArrow=ERmandOne;endFill=0;startArrow=ERmandOne;startFill=0;" edge="1" parent="1" source="d3SKRms_41stb-vJ69zK-2" target="d3SKRms_41stb-vJ69zK-3">
          <mxGeometry relative="1" as="geometry" />
        </mxCell>
        <mxCell id="d3SKRms_41stb-vJ69zK-20" value="login" style="swimlane;childLayout=stackLayout;horizontal=1;startSize=50;horizontalStack=0;rounded=1;fontSize=14;fontStyle=0;strokeWidth=2;resizeParent=0;resizeLast=1;shadow=0;dashed=0;align=center;arcSize=4;whiteSpace=wrap;html=1;fontFamily=Ubuntu Mono;fontSource=https%3A%2F%2Ffonts.googleapis.com%2Fcss%3Ffamily%3DUbuntu%2BMono;" vertex="1" parent="1">
          <mxGeometry x="1460" y="-115" width="190" height="130" as="geometry" />
        </mxCell>
        <mxCell id="d3SKRms_41stb-vJ69zK-21" value="PK codLog&lt;div&gt;* nivel&lt;/div&gt;&lt;div&gt;&lt;br&gt;&lt;/div&gt;&lt;div&gt;&lt;br&gt;&lt;/div&gt;&lt;div&gt;&lt;br&gt;&lt;/div&gt;&lt;div&gt;&lt;br&gt;&lt;/div&gt;" style="align=left;strokeColor=none;fillColor=none;spacingLeft=4;fontSize=12;verticalAlign=top;resizable=0;rotatable=0;part=1;html=1;fontFamily=Ubuntu Mono;fontSource=https%3A%2F%2Ffonts.googleapis.com%2Fcss%3Ffamily%3DUbuntu%2BMono;" vertex="1" parent="d3SKRms_41stb-vJ69zK-20">
          <mxGeometry y="50" width="190" height="80" as="geometry" />
        </mxCell>
        <mxCell id="d3SKRms_41stb-vJ69zK-22" style="edgeStyle=orthogonalEdgeStyle;rounded=0;orthogonalLoop=1;jettySize=auto;html=1;exitX=0;exitY=0.25;exitDx=0;exitDy=0;entryX=1.001;entryY=0.362;entryDx=0;entryDy=0;entryPerimeter=0;startArrow=ERmandOne;startFill=0;endArrow=ERzeroToMany;endFill=0;" edge="1" parent="1" source="d3SKRms_41stb-vJ69zK-21" target="d3SKRms_41stb-vJ69zK-13">
          <mxGeometry relative="1" as="geometry" />
        </mxCell>
        <mxCell id="d3SKRms_41stb-vJ69zK-23" value="resHab" style="swimlane;childLayout=stackLayout;horizontal=1;startSize=50;horizontalStack=0;rounded=1;fontSize=14;fontStyle=0;strokeWidth=2;resizeParent=0;resizeLast=1;shadow=0;dashed=0;align=center;arcSize=4;whiteSpace=wrap;html=1;fontFamily=Ubuntu Mono;fontSource=https%3A%2F%2Ffonts.googleapis.com%2Fcss%3Ffamily%3DUbuntu%2BMono;" vertex="1" parent="1">
          <mxGeometry x="676" y="-170" width="190" height="170" as="geometry" />
        </mxCell>
        <mxCell id="d3SKRms_41stb-vJ69zK-24" value="PK codReshab&lt;br&gt;FK codHab&lt;br&gt;FK codReserva&lt;br&gt;&lt;div style=&quot;border-color: var(--border-color);&quot;&gt;* camaMatr&lt;/div&gt;&lt;div style=&quot;border-color: var(--border-color);&quot;&gt;* camaInd&lt;/div&gt;&lt;div style=&quot;border-color: var(--border-color);&quot;&gt;* costoHab&lt;/div&gt;" style="align=left;strokeColor=none;fillColor=none;spacingLeft=4;fontSize=12;verticalAlign=top;resizable=0;rotatable=0;part=1;html=1;fontFamily=Ubuntu Mono;fontSource=https%3A%2F%2Ffonts.googleapis.com%2Fcss%3Ffamily%3DUbuntu%2BMono;" vertex="1" parent="d3SKRms_41stb-vJ69zK-23">
          <mxGeometry y="50" width="190" height="120" as="geometry" />
        </mxCell>
        <mxCell id="d3SKRms_41stb-vJ69zK-25" value="" style="edgeStyle=orthogonalEdgeStyle;rounded=0;orthogonalLoop=1;jettySize=auto;html=1;endArrow=ERzeroToMany;endFill=0;startArrow=ERmandOne;startFill=0;" edge="1" parent="1" source="d3SKRms_41stb-vJ69zK-6" target="d3SKRms_41stb-vJ69zK-24">
          <mxGeometry relative="1" as="geometry" />
        </mxCell>
        <mxCell id="d3SKRms_41stb-vJ69zK-26" value="" style="edgeStyle=orthogonalEdgeStyle;rounded=0;orthogonalLoop=1;jettySize=auto;html=1;endArrow=ERmandOne;endFill=0;startArrow=ERoneToMany;startFill=0;" edge="1" parent="1" source="d3SKRms_41stb-vJ69zK-24" target="d3SKRms_41stb-vJ69zK-2">
          <mxGeometry relative="1" as="geometry" />
        </mxCell>
        <mxCell id="d3SKRms_41stb-vJ69zK-31" value="resCochera" style="swimlane;childLayout=stackLayout;horizontal=1;startSize=50;horizontalStack=0;rounded=1;fontSize=14;fontStyle=0;strokeWidth=2;resizeParent=0;resizeLast=1;shadow=0;dashed=0;align=center;arcSize=4;whiteSpace=wrap;html=1;fontFamily=Ubuntu Mono;fontSource=https%3A%2F%2Ffonts.googleapis.com%2Fcss%3Ffamily%3DUbuntu%2BMono;" vertex="1" parent="1">
          <mxGeometry x="940" y="-346" width="190" height="130" as="geometry" />
        </mxCell>
        <mxCell id="d3SKRms_41stb-vJ69zK-32" value="PK codRescoch&lt;br&gt;FK codReserva&lt;br&gt;FK codCochera&lt;br&gt;&lt;br&gt;" style="align=left;strokeColor=none;fillColor=none;spacingLeft=4;fontSize=12;verticalAlign=top;resizable=0;rotatable=0;part=1;html=1;fontFamily=Ubuntu Mono;fontSource=https%3A%2F%2Ffonts.googleapis.com%2Fcss%3Ffamily%3DUbuntu%2BMono;" vertex="1" parent="d3SKRms_41stb-vJ69zK-31">
          <mxGeometry y="50" width="190" height="80" as="geometry" />
        </mxCell>
        <mxCell id="d3SKRms_41stb-vJ69zK-33" style="edgeStyle=orthogonalEdgeStyle;rounded=0;orthogonalLoop=1;jettySize=auto;html=1;exitX=0.5;exitY=1;exitDx=0;exitDy=0;entryX=0.5;entryY=0;entryDx=0;entryDy=0;endArrow=ERoneToMany;endFill=0;startArrow=ERmandOne;startFill=0;" edge="1" parent="1" source="d3SKRms_41stb-vJ69zK-9" target="d3SKRms_41stb-vJ69zK-31">
          <mxGeometry relative="1" as="geometry" />
        </mxCell>
        <mxCell id="d3SKRms_41stb-vJ69zK-35" style="edgeStyle=orthogonalEdgeStyle;rounded=0;orthogonalLoop=1;jettySize=auto;html=1;exitX=0.5;exitY=1;exitDx=0;exitDy=0;entryX=0.5;entryY=0;entryDx=0;entryDy=0;endArrow=ERmandOne;endFill=0;startArrow=ERoneToMany;startFill=0;" edge="1" parent="1" source="d3SKRms_41stb-vJ69zK-32" target="d3SKRms_41stb-vJ69zK-1">
          <mxGeometry relative="1" as="geometry" />
        </mxCell>
      </root>
    </mxGraphModel>
  </diagram>
</mxfile>
